<svg width="500" height="750" viewBox="0 0 500 750" fill="none" xmlns="http://www.w3.org/2000/svg">
  <rect width="500" height="750" fill="#1F2937"/>
  <path d="M250 275C236.193 275 225 286.193 225 300V450C225 463.807 236.193 475 250 475C263.807 475 275 463.807 275 450V300C275 286.193 263.807 275 250 275Z" fill="#4B5563"/>
  <path d="M175 325C161.193 325 150 336.193 150 350V400C150 413.807 161.193 425 175 425C188.807 425 200 413.807 200 400V350C200 336.193 188.807 325 175 325Z" fill="#4B5563"/>
  <path d="M325 325C311.193 325 300 336.193 300 350V400C300 413.807 311.193 425 325 425C338.807 425 350 413.807 350 400V350C350 336.193 338.807 325 325 325Z" fill="#4B5563"/>
  <circle cx="250" cy="250" r="25" fill="#4B5563"/>
  <text x="250" y="550" font-family="Arial, sans-serif" font-size="24" fill="#9CA3AF" text-anchor="middle">No Image Available</text>
</svg>
